# xmcd
#
# Track frame offsets:
#       150
#       17845
#       38567
#       57579
#       75483
#       93074
#       108772
#       123787
#       143355
#       155464
#
# Disc length: 2307 seconds
#
# Revision: 2
# Processed by: cddbd v1.5.2PL0 Copyright (c) Steve Scherf et al.
# Submitted via: CD-DA_X-Tractor v0.24
#
DISCID=6709010a
DTITLE=Charlie Dore - Where To Now
DYEAR=1979
DGENRE=Country
TTITLE0=Pilot Of The Airwaves
TTITLE1=Falling
TTITLE2=Sad Old World
TTITLE3=Where To Now
TTITLE4=Sleepless
TTITLE5=Fear Of Flying
TTITLE6=Wise Owl
TTITLE7=Hula Valley
TTITLE8=Pickin' Apples
TTITLE9=Sweetheart
EXTD=
EXTT0=
EXTT1=
EXTT2=
EXTT3=
EXTT4=
EXTT5=
EXTT6=
EXTT7=
EXTT8=
EXTT9=
PLAYORDER=
